HIERARCHY
ROOT Hips
{
	OFFSET 0.00000 0.00000 0.00000
	CHANNELS 6 Xposition Yposition Zposition Zrotation Yrotation Xrotation 
	JOINT LHipJoint
	{
		OFFSET 0 0 0
		CHANNELS 3 Zrotation Yrotation Xrotation
		JOINT LeftHip
		{
			OFFSET 1.42489 -1.84941 0.69647
			CHANNELS 3 Zrotation Yrotation Xrotation
			JOINT LeftKnee
			{
				OFFSET 2.44443 -6.71602 0.00000
				CHANNELS 3 Zrotation Yrotation Xrotation
				JOINT LeftAnkle
				{
					OFFSET 2.62838 -7.22137 0.00000
					CHANNELS 3 Zrotation Yrotation Xrotation
					JOINT LeftToe
					{
						OFFSET 0.24036 -0.66037 2.29953
						CHANNELS 3 Zrotation Yrotation Xrotation
						End Site
						{
							OFFSET 0.00000 -0.00000 1.19837
						}
					}
				}
			}
		}
	}
	JOINT RHipJoint
	{
		OFFSET 0 0 0
		CHANNELS 3 Zrotation Yrotation Xrotation
		JOINT RightHip
		{
			OFFSET -1.37055 -1.84941 0.69647
			CHANNELS 3 Zrotation Yrotation Xrotation
			JOINT RightKnee
			{
				OFFSET -2.54834 -7.00152 0.00000
				CHANNELS 3 Zrotation Yrotation Xrotation
				JOINT RightAnkle
				{
					OFFSET -2.65692 -7.29983 0.00000
					CHANNELS 3 Zrotation Yrotation Xrotation
					JOINT RightToe
					{
						OFFSET -0.18839 -0.51760 2.29390
						CHANNELS 3 Zrotation Yrotation Xrotation
						End Site
						{
							OFFSET -0.00000 -0.00000 1.18261
						}
					}
				}
			}
		}
	}
	JOINT lowerback
	{
		OFFSET 0 0 0
		CHANNELS 3 Zrotation Yrotation Xrotation
		JOINT Chest
		{
			OFFSET 0.05220 2.15489 0.05011
			CHANNELS 3 Zrotation Yrotation Xrotation
			JOINT Chest2
			{
				OFFSET -0.07653 2.14219 -0.05668
				CHANNELS 3 Zrotation Yrotation Xrotation
				JOINT lowerneck
				{
					OFFSET 0 0 0
					CHANNELS 3 Zrotation Yrotation Xrotation
					JOINT Neck
					{
						OFFSET 0.01370 1.58638 0.01447
						CHANNELS 3 Zrotation Yrotation Xrotation
						JOINT Head
						{
							OFFSET 0.23548 1.54190 -0.21747
							CHANNELS 3 Zrotation Yrotation Xrotation
							End Site
							{
								OFFSET 0.07132 1.59823 -0.08163
							}
						}
					}
				}
				JOINT LeftCollar
				{
					OFFSET 0 0 0
					CHANNELS 3 Zrotation Yrotation Xrotation
					JOINT LeftShoulder
					{
						OFFSET 3.47056 1.45357 -0.58896
CHANNELS 3 Zrotation Xrotation Yrotation
						JOINT LeftElbow
						{
OFFSET 0 -5.190690 0.000000
CHANNELS 3 Zrotation Xrotation Yrotation
							JOINT LeftWrist
							{
OFFSET 0 -3.300160 0.000000
CHANNELS 3 Zrotation Xrotation Yrotation
								JOINT lhand
								{
									OFFSET 0 0 0
CHANNELS 3 Zrotation Xrotation Yrotation
									JOINT LFingers
									{
OFFSET 0 -0.707700 0.000000
CHANNELS 3 Zrotation Xrotation Yrotation
										End Site
										{
OFFSET 0 -0.570560 0.000000
										}
									}
								}
								JOINT LThumb
								{
OFFSET 0 0.000000 0.000000
CHANNELS 3 Zrotation Xrotation Yrotation
									End Site
									{
OFFSET 0 -0.579280 0.579280
									}
								}
							}
						}
					}
				}
				JOINT RightCollar
				{
					OFFSET 0 0 0
					CHANNELS 3 Zrotation Yrotation Xrotation
					JOINT RightShoulder
					{
						OFFSET -2.89018 2.03305 -0.26731
CHANNELS 3 Zrotation Xrotation Yrotation
						JOINT RightElbow
						{
OFFSET 0 -5.239240 0.000000
CHANNELS 3 Zrotation Xrotation Yrotation
							JOINT RightWrist
							{
OFFSET 0 -3.329530 0.000000
CHANNELS 3 Zrotation Xrotation Yrotation
								JOINT rhand
								{
									OFFSET 0 0 0
CHANNELS 3 Zrotation Xrotation Yrotation
									JOINT RFingers
									{
OFFSET 0 -0.607410 0.000000
CHANNELS 3 Zrotation Xrotation Yrotation
										End Site
										{
OFFSET 0 -0.489710 0.000000
										}
									}
								}
								JOINT RThumb
								{
OFFSET 0 0.000000 0.000000
CHANNELS 3 Zrotation Xrotation Yrotation
									End Site
									{
OFFSET 0 -0.497190 0.497190
									}
								}
							}
						}
					}
				}
			}
		}
	}
}
MOTION
Frames: 8
Frame Time: 0.008333333333333333
-3.436500 17.263000 -5.271400 -7.403800 0.410800 2.671000 0.000000 0.000000 0.000000 -11.390100 1.804400 -12.192400 3.674000 11.713400 34.725500 2.585500 10.732600 -35.643700 0.053200 -1.489000 -4.095300 0.000000 0.000000 0.000000 25.437700 5.924600 -15.853500 -4.153900 -12.362400 37.026300 -1.625600 4.094300 -23.134000 -0.029300 1.104100 -3.035300 5.270500 -2.126900 -7.539900 0.540400 -3.430200 2.790400 -2.839800 -1.463300 6.897700 -13.521700 -12.763600 0.084800 23.672900 -18.204500 1.212200 8.448300 -8.985400 3.902600 0.000000 -0.000000 0.000000 5.088100 -4.532600 -28.879300 8.388300 -14.180200 1.045200 11.755800 -1.186700 8.247200 0.000000 0.000000 0.000000 -7.125000 0.000000 0.000000 -10.911600 21.613700 -6.236600 0.000000 -0.000000 0.000000 -90.000000 0.000000 -0.000000 0.000000 0.000000 -0.000000 0.000000 0.000000 -0.000000 0.000000 0.000000 0.000000 0.000000 -0.000000 0.000000 0.000000 0.000000 0.000000
-3.456710 17.262274 -5.261364 -7.381865 0.709205 2.648466 0.000000 0.000000 0.000000 -11.291445 1.769699 -12.205578 3.676174 11.716538 34.736478 2.570678 10.558532 -35.454360 0.056626 -1.535131 -4.222552 0.000000 0.000000 0.000000 25.506064 5.819448 -15.827363 -4.158476 -12.368338 37.047774 -1.642765 3.964888 -23.281241 -0.028107 1.082774 -2.976659 5.281470 -2.148363 -7.563041 0.568769 -3.460415 2.720037 -2.818983 -1.481477 6.834556 -13.633976 -12.827635 0.354751 23.693650 -18.310872 1.166305 8.478178 -9.056887 3.876065 0.000000 0.000000 0.000000 5.086813 -4.192995 -28.343103 8.322561 -14.074351 1.029183 11.964722 -1.063972 8.246493 0.000000 0.000000 0.000000 -7.125000 0.000000 0.000000 -10.761522 21.606776 -6.149495 0.000000 0.000000 0.000000 -90.000000 0.000000 0.000000 0.000000 0.000000 0.000000 0.000000 0.000000 0.000000 0.000000 0.000000 0.000000 0.000000 0.000000 0.000000 0.000000 0.000000 0.000000
-3.475458 17.261819 -5.250900 -7.300727 1.046587 2.617732 0.000000 0.000000 0.000000 -11.263550 1.741809 -12.210262 3.673462 11.712728 34.723090 2.548014 10.402910 -35.234598 0.062281 -1.610002 -4.428992 0.000000 0.000000 0.000000 25.500158 5.668648 -15.809847 -4.164834 -12.376557 37.077272 -1.660605 3.842434 -23.433062 -0.027229 1.065409 -2.928956 5.233914 -2.156010 -7.638412 0.558791 -3.469248 2.704451 -2.807371 -1.486876 6.862338 -13.690798 -12.941265 0.507767 23.741992 -18.492786 1.191425 8.488591 -9.154298 3.902872 0.000000 0.000000 0.000000 5.141020 -3.959725 -28.031064 8.307571 -14.050290 1.025495 12.114495 -1.202169 8.329707 0.000000 0.000000 0.000000 -7.125000 0.000000 0.000000 -10.649601 21.517822 -6.105275 0.000000 0.000000 0.000000 -12.666915 1.751863 18.854090 -13.360345 -21.551784 -2.832696 -9.156633 1.897090 8.655532 0.000000 0.000000 0.000000 6.446995 0.000000 0.000000 13.200822 35.544161 1.907406
-3.494315 17.261129 -5.240907 -7.253555 1.384496 2.582384 0.000000 0.000000 0.000000 -11.198389 1.699133 -12.208028 3.670878 11.709071 34.710399 2.525256 10.256907 -35.019668 0.068022 -1.682496 -4.628895 0.000000 0.000000 0.000000 25.537124 5.542894 -15.775569 -4.169229 -12.382236 37.097901 -1.678072 3.690563 -23.587565 -0.026493 1.051242 -2.889769 5.212299 -2.163407 -7.698896 0.561643 -3.479965 2.682285 -2.796128 -1.493072 6.873929 -13.767111 -13.049641 0.655057 23.803096 -18.675545 1.255818 8.504836 -9.250148 3.945717 0.000000 0.000000 0.000000 5.184145 -3.716160 -27.732967 8.328509 -14.083996 1.030601 12.245727 -1.355803 8.423956 0.000000 0.000000 0.000000 -7.125000 0.000000 0.000000 -10.550681 21.418158 -6.070863 0.000000 0.000000 0.000000 -4.580652 1.839810 21.302843 -15.013140 -24.164359 -3.231326 -9.922874 1.727594 9.579056 0.000000 0.000000 0.000000 7.125000 0.000000 0.000000 14.758375 39.279827 2.134672
-3.512692 17.260638 -5.231504 -7.217393 1.749267 2.538449 0.000000 0.000000 0.000000 -11.124781 1.618898 -12.193013 3.668952 11.706390 34.700904 2.504323 10.113691 -34.816302 0.073400 -1.747880 -4.809363 0.000000 0.000000 0.000000 25.586851 5.408676 -15.730368 -4.171124 -12.384686 37.106800 -1.695730 3.519451 -23.747077 -0.025757 1.036318 -2.848731 5.198914 -2.168891 -7.750784 0.564438 -3.488667 2.664666 -2.789028 -1.497824 6.885148 -13.825232 -13.165803 0.799933 23.859279 -18.869722 1.324337 8.514786 -9.351197 3.990303 0.000000 0.000000 0.000000 5.234298 -3.495515 -27.541352 8.386890 -14.178089 1.044892 12.350020 -1.632108 8.580974 0.000000 0.000000 0.000000 -7.125000 0.000000 0.000000 -10.468067 21.256188 -6.060786 0.000000 0.000000 0.000000 -4.611735 1.731173 21.736456 -15.254420 -24.499273 -3.330721 -9.906937 1.513799 9.666636 0.000000 0.000000 0.000000 7.125000 0.000000 0.000000 14.792522 39.364364 2.108259
-3.530082 17.260248 -5.222556 -7.187152 2.142240 2.485231 0.000000 0.000000 0.000000 -11.051076 1.501375 -12.162464 3.667190 11.703812 34.692104 2.486087 9.970121 -34.626935 0.078224 -1.804571 -4.965724 0.000000 0.000000 0.000000 25.638487 5.242744 -15.683994 -4.171474 -12.385074 37.108321 -1.713161 3.350506 -23.905379 -0.025048 1.022180 -2.809759 5.189027 -2.175739 -7.796072 0.571196 -3.499858 2.658012 -2.779980 -1.503355 6.904102 -13.860977 -13.284629 0.933887 23.898279 -19.059558 1.365514 8.515831 -9.450427 4.024098 0.000000 0.000000 0.000000 5.281515 -3.306322 -27.463177 8.485317 -14.336428 1.069071 12.397019 -2.034886 8.772618 0.000000 0.000000 0.000000 -7.125000 0.000000 0.000000 -10.425273 21.061651 -6.081891 0.000000 0.000000 0.000000 -4.639917 1.607580 22.150038 -15.478455 -24.808400 -3.424193 -10.107918 1.395449 9.816406 0.000000 0.000000 0.000000 7.125000 0.000000 0.000000 14.658229 39.526938 2.027859
-3.546202 17.259414 -5.213485 -7.160198 2.538338 2.413592 0.000000 0.000000 0.000000 -10.980307 1.378817 -12.107450 3.665157 11.701043 34.682328 2.470156 9.825129 -34.448869 0.082886 -1.856933 -5.110470 0.000000 0.000000 0.000000 25.688248 5.052539 -15.623407 -4.171300 -12.384900 37.107557 -1.730430 3.195628 -24.060272 -0.024557 1.010870 -2.778654 5.187587 -2.177743 -7.826331 0.582158 -3.505086 2.660344 -2.769928 -1.505471 6.924374 -13.909205 -13.400254 1.051467 23.937647 -19.241232 1.394632 8.518615 -9.545109 4.057118 0.000000 0.000000 0.000000 5.316846 -3.139085 -27.475275 8.622143 -14.556224 1.103204 12.374281 -2.498274 8.877247 0.000000 0.000000 0.000000 -7.125000 0.000000 0.000000 -10.436617 20.957382 -6.113760 0.000000 0.000000 0.000000 -4.675546 1.482187 22.569327 -15.684791 -25.091341 -3.511237 -10.457250 1.289946 9.980244 0.000000 0.000000 0.000000 7.125000 0.000000 0.000000 14.401059 39.715804 1.921875
-3.561052 17.258000 -5.203949 -7.137513 2.910775 2.323473 0.000000 0.000000 0.000000 -10.910627 1.279007 -12.030257 3.662650 11.697366 34.669648 2.455598 9.682517 -34.279864 0.088067 -1.913623 -5.266919 0.000000 0.000000 0.000000 25.738638 4.867163 -15.540590 -4.171717 -12.385534 37.109801 -1.747469 3.047999 -24.212784 -0.024183 1.003416 -2.758148 5.199618 -2.171832 -7.841585 0.591084 -3.500616 2.675302 -2.767933 -1.501866 6.949403 -13.966258 -13.515696 1.118707 23.983473 -19.423087 1.444807 8.520251 -9.635644 4.106823 0.000000 0.000000 0.000000 5.347586 -3.002002 -27.515805 8.792672 -14.829435 1.146522 12.285155 -2.980039 8.833339 0.000000 0.000000 0.000000 -7.125000 0.000000 0.000000 -10.502375 21.005178 -6.142053 0.000000 0.000000 0.000000 -4.709237 1.347586 22.996599 -15.871704 -25.346361 -3.590892 -10.818101 1.132493 10.098843 0.000000 0.000000 0.000000 7.125000 0.000000 0.000000 14.122524 39.861513 1.830942
